<svg xmlns="http://www.w3.org/2000/svg" viewBox="0 0 100 100" width="100" height="100">
  <rect width="100" height="100" rx="22" fill="#111317"/>
  <g transform="translate(50 52) scale(0.62) translate(-50 -50)">
    <!-- Huginn spark -->
    <path d="M 16 4 L 18 11 L 25 13 L 18 15 L 16 22 L 14 15 L 7 13 L 14 11 Z" fill="#10B981"/>
    <!-- Raven silhouette (from brand mark) -->
    <path fill="#F5F5F4" fill-rule="evenodd" d="M 8 38 Q 18 30, 30 28 Q 42 22, 54 24 Q 66 28, 72 38 Q 80 48, 84 60 L 96 80 L 86 84 L 70 72 Q 60 76, 52 76 L 52 89 L 49 89 L 49 76 L 44 76 L 40 89 L 37 89 L 37 76 Q 30 74, 28 64 Q 26 56, 28 48 L 24 46 L 30 44 L 22 40 L 30 38 L 22 36 L 8 38 Z"/>
    <circle cx="38" cy="32" r="1.6" fill="#111317"/>
  </g>
</svg>
